<?xml version="1.0" encoding="utf-8"?>
<!-- Generator: Adobe Illustrator 23.1.0, SVG Export Plug-In . SVG Version: 6.00 Build 0)  -->
<svg version="1.1" id="Layer_1" xmlns="http://www.w3.org/2000/svg" xmlns:xlink="http://www.w3.org/1999/xlink" x="0px" y="0px"
	 viewBox="0 0 150 60" style="enable-background:new 0 0 150 60;" xml:space="preserve">
<style type="text/css">
	.st0{fill:#FFDF57;}
</style>
<polygon class="st0" points="31.42,20.28 34.14,25.8 40.23,26.68 35.82,30.97 36.86,37.04 31.42,34.17 25.97,37.04 27.01,30.97 
	22.61,26.68 28.7,25.8 "/>
<polygon class="st0" points="53.79,20.28 56.51,25.8 62.6,26.68 58.2,30.97 59.24,37.04 53.79,34.17 48.35,37.04 49.39,30.97 
	44.98,26.68 51.07,25.8 "/>
<polygon class="st0" points="76.16,20.28 78.89,25.8 84.97,26.68 80.57,30.97 81.61,37.04 76.16,34.17 70.72,37.04 71.76,30.97 
	67.36,26.68 73.44,25.8 "/>
<polygon class="st0" points="98.54,20.28 101.26,25.8 107.35,26.68 102.94,30.97 103.98,37.04 98.54,34.17 93.09,37.04 94.13,30.97 
	89.73,26.68 95.82,25.8 "/>
<polygon class="st0" points="120.91,20.28 123.63,25.8 129.72,26.68 125.31,30.97 126.35,37.04 120.91,34.17 115.47,37.04 
	116.51,30.97 112.1,26.68 118.19,25.8 "/>
</svg>
