<svg id="Layer_1" data-name="Layer 1" xmlns="http://www.w3.org/2000/svg" viewBox="0 0 368.04 235.05"><defs><style>.cls-1{fill:#252525;stroke:#252525;}.cls-1,.cls-4{stroke-miterlimit:10;}.cls-2{fill:#4babb7;}.cls-3{fill:#ddeaff;}.cls-4{fill:none;stroke:#54b5b9;stroke-width:14.17px;}.cls-5{isolation:isolate;font-size:143.08px;fill:#231f20;font-family:CircularStd-Black, Circular Std;font-weight:800;}.cls-6{letter-spacing:-0.02em;}</style></defs><title>login</title><path class="cls-1" d="M459.33,181.74,460,332.8l-136.7,1,10.08,17.1,129.35-1.27s1.6-22.24,21.69-30.19,30.25-4.83,30.25-4.83,17.71,4.88,23.18,15,10.66,20.58,10.66,20.58l43.32.81.37-19.51-12.47-2.52.1-51.07-30.81-17-17.41-53.15-.39-27Z" transform="translate(-224.68 -180.15)"/><path class="cls-2" d="M531.28,370.24l1.37-1.75C532.19,369.07,531.73,369.65,531.28,370.24Z" transform="translate(-224.68 -180.15)"/><path class="cls-3" d="M492.76,238.79c0-6.62.12-13.24-.05-19.86-.07-2.79.74-3.81,3.65-3.74,7.38.18,14.78.33,22.14-.06,3.9-.2,5.1,1.81,6,4.79,1.54,5.34,3,10.71,4.6,16,2.39,7.83,4.88,15.63,7.36,23.44.82,2.58.18,3.77-2.76,3.75q-18.7-.13-37.43,0c-2.73,0-3.53-1.18-3.5-3.7C492.82,252.54,492.76,245.67,492.76,238.79Z" transform="translate(-224.68 -180.15)"/><ellipse class="cls-4" cx="280.51" cy="190.09" rx="32.71" ry="37.88"/><ellipse class="cls-4" cx="61.19" cy="190.09" rx="32.71" ry="37.88"/><polygon class="cls-1" points="5.01 153.56 5.01 172.35 18.99 172.18 26.88 153.27 5.01 153.56"/><text class="cls-5" transform="translate(0 138.05) scale(0.46 1)"><tspan class="cls-6">L</tspan><tspan x="78.55" y="0">OG IN</tspan></text></svg>