<svg id="Layer_1" data-name="Layer 1" xmlns="http://www.w3.org/2000/svg" viewBox="0 0 426.67 276.44"><defs><style>.cls-1{fill:#1c1b1b;}.cls-2{fill:#d9e8ff;}.cls-3{fill:#1a1818;}.cls-4{fill:#7da2d9;}</style></defs><title>logo</title><g id="Group_215" data-name="Group 215"><g id="Group_201" data-name="Group 201"><path id="Path_144" data-name="Path 144" class="cls-1" d="M354.88,309.6l.8,176.76-160,1.12,11.8,20L358.86,506s1.87-26,25.38-35.33S419.63,465,419.63,465s20.73,5.71,27.12,17.56,12.48,24.08,12.48,24.08l50.69.95.44-22.82-14.6-2.94.13-59.76-36.06-19.94L439.46,340,439,308.34Z" transform="translate(-84.4 -307.65)"/><path id="Path_145" data-name="Path 145" class="cls-1" d="M510.6,508.31l-51.78-1-.18-.37c-.06-.12-6.15-12.35-12.46-24.06-6.19-11.47-26.5-17.18-26.7-17.23s-12-3.47-35,5.62-24.93,34.5-24.95,34.75l0,.63h-.63l-151.75,1.49-12.6-21.35L355,485.69l-.81-176.76,85.49-1.28.46,32.2,20.26,61.85,36.18,20v.39l-.13,59.21,14.61,2.94ZM459.66,506l49.61.92.42-21.58-14.58-2.94.12-59.91-35.94-19.87-.08-.25-20.41-62.3L438.35,309l-82.79,1.24.8,176.77h-.67L196.9,488.15l11,18.65,150.37-1.47c.49-4.05,4.15-26.74,25.74-35.29,23.46-9.29,35.35-5.82,35.84-5.67.84.23,21.06,5.92,27.52,17.89,5.7,10.6,11.23,21.61,12.29,23.74Z" transform="translate(-84.4 -307.65)"/></g><g id="Group_204" data-name="Group 204"><g id="Group_202" data-name="Group 202"><path id="Path_146" data-name="Path 146" class="cls-2" d="M439.07,530.17l1.61-2Z" transform="translate(-84.4 -307.65)"/></g><g id="Group_203" data-name="Group 203"><path id="Path_147" data-name="Path 147" class="cls-2" d="M394,376.36c0-7.75.14-15.5-.06-23.24-.09-3.27.86-4.46,4.26-4.38,8.64.21,17.3.38,25.91-.07,4.57-.24,6,2.12,7,5.61,1.8,6.25,3.49,12.53,5.39,18.75,2.79,9.16,5.71,18.29,8.61,27.42,1,3,.22,4.42-3.22,4.38q-21.9-.15-43.8,0c-3.2,0-4.13-1.38-4.09-4.33C394.07,392.45,394,384.4,394,376.36Z" transform="translate(-84.4 -307.65)"/></g></g><g id="Group_205" data-name="Group 205"><path id="Path_148" data-name="Path 148" class="cls-3" d="M91.49,326.46v8.13h12.72v7.09H91.49V356.9H84.4V319.37h22.93v7.09Z" transform="translate(-84.4 -307.65)"/><path id="Path_149" data-name="Path 149" class="cls-3" d="M109.68,342.83c0-8.81,5.88-14.86,14.23-14.86,8.5,0,14.28,6.15,14.28,14.86s-5.83,14.86-14.28,14.86S109.68,351.53,109.68,342.83Zm14.23-8.24c-4.64,0-6.73,3.34-6.73,8.24,0,5.06,2.3,8.23,6.73,8.23s6.77-3.38,6.77-8.23c0-5-2.29-8.24-6.77-8.24Z" transform="translate(-84.4 -307.65)"/><path id="Path_150" data-name="Path 150" class="cls-3" d="M142.36,342.83c0-8.81,5.89-14.86,14.23-14.86,8.5,0,14.28,6.15,14.28,14.86s-5.83,14.86-14.28,14.86S142.36,351.53,142.36,342.83Zm14.23-8.24c-4.64,0-6.73,3.34-6.73,8.24,0,5.06,2.3,8.23,6.73,8.23s6.78-3.38,6.78-8.23c0-5-2.3-8.24-6.78-8.24Z" transform="translate(-84.4 -307.65)"/><path id="Path_151" data-name="Path 151" class="cls-3" d="M201.89,319.37V356.9h-6.26v-1.61a12.16,12.16,0,0,1-7.61,2.39c-7.77,0-13-6.41-13-14.85,0-8.6,5.26-14.86,13.34-14.86a11.77,11.77,0,0,1,6.36,1.72V319.37Zm-6.26,23.46c0-5.11-1.77-8.55-6.2-8.55-4.75,0-6.88,3.86-6.88,8.55s2,8.55,6.62,8.55c4.74,0,6.46-3.44,6.46-8.55Z" transform="translate(-84.4 -307.65)"/><path id="Path_152" data-name="Path 152" class="cls-3" d="M217.94,344.55a10.7,10.7,0,0,0,.57,5.05,3.79,3.79,0,0,0,3,1.62,23.37,23.37,0,0,0,4.58-.21v5.89a23.23,23.23,0,0,1-8.23.21,7.69,7.69,0,0,1-5.74-3.55c-1.56-2.29-1.26-5.21-1.26-8.6V334.22h-4.79v-5.46h4.79v-7.82h7.09v7.82h8.15v5.46H218Z" transform="translate(-84.4 -307.65)"/><path id="Path_153" data-name="Path 153" class="cls-3" d="M248.85,328.74v6.62a8.52,8.52,0,0,0-5.52.47,6.73,6.73,0,0,0-3.86,6.67v14.41h-7.15V328.74h6.26v4.54a8.77,8.77,0,0,1,3-3.18A11.38,11.38,0,0,1,248.85,328.74Z" transform="translate(-84.4 -307.65)"/><path id="Path_154" data-name="Path 154" class="cls-3" d="M279.66,328.75V356.9H273.4V354a3,3,0,0,0-.36.43,10.21,10.21,0,0,1-7.25,3.28,11.75,11.75,0,0,1-9.43-3c-3.08-3-3.08-7.93-3.08-12.31v-13.6h7.2v13.29a11.33,11.33,0,0,0,1.87,7.4,5.51,5.51,0,0,0,4.43,1.62,6,6,0,0,0,3.34-1.09,5.82,5.82,0,0,0,2.09-3.6,32.13,32.13,0,0,0,.31-5.37V328.76Z" transform="translate(-84.4 -307.65)"/><path id="Path_155" data-name="Path 155" class="cls-3" d="M305,339.23a5.92,5.92,0,0,0-5.67-4.64c-4.48,0-6.46,3.55-6.46,8.24,0,4.9,2.19,8.23,6.46,8.23a5.16,5.16,0,0,0,5.52-4.22l7.25,1.51a12.23,12.23,0,0,1-12.77,9.33c-8.76,0-14-6.41-14-14.85S290.86,328,299.48,328c6.62,0,11.42,3.6,12.67,9.38Z" transform="translate(-84.4 -307.65)"/><path id="Path_156" data-name="Path 156" class="cls-3" d="M317.4,319.37h7.19V342.3l9.54-13.56h8.75l-10.16,14.09,10.84,14.08h-9.22l-9.75-13.55v13.55h-7.25Z" transform="translate(-84.4 -307.65)"/></g><g id="Group_206" data-name="Group 206"><path id="Path_157" data-name="Path 157" class="cls-3" d="M106.08,435.72H95.57v33H86.16v-97.5h21a16.13,16.13,0,0,1,4.15.54c8.92,2.71,12.87,15.3,12.87,31.69,0,13.27-2.63,24-8.3,29.11l9,36.16H114.24ZM95.57,418.53h11.2a6.8,6.8,0,0,0,3.19-.68c3.8-2,4.77-9.07,4.77-14.35s-1-12.33-4.77-14.36a6.76,6.76,0,0,0-3.19-.67H95.57Z" transform="translate(-84.4 -307.65)"/></g><g id="Group_207" data-name="Group 207"><path id="Path_158" data-name="Path 158" class="cls-3" d="M143.65,388.47v20.85H162.6v17.2H143.65v25.05h23.1v17.2H134.24v-97.5h32.51v17.2Z" transform="translate(-84.4 -307.65)"/></g><g id="Group_208" data-name="Group 208"><path id="Path_159" data-name="Path 159" class="cls-3" d="M204.5,436.27v-65h9.55v97.5H204.5l-21.65-65v65h-9.54v-97.5h9.54Z" transform="translate(-84.4 -307.65)"/></g><g id="Group_209" data-name="Group 209"><path id="Path_160" data-name="Path 160" class="cls-3" d="M262.59,388.47h-15.7v80.3h-9.41v-80.3h-15.7v-17.2h40.81Z" transform="translate(-84.4 -307.65)"/></g><g id="Group_210" data-name="Group 210"><path id="Path_161" data-name="Path 161" class="cls-3" d="M295.06,448.45H276.31l-3.18,20.32h-9.68l15.22-97.5h14l15.21,97.5h-9.68Zm-2.77-17.19-6.71-42.66-6.64,42.65Z" transform="translate(-84.4 -307.65)"/></g><g id="Group_211" data-name="Group 211"><path id="Path_162" data-name="Path 162" class="cls-3" d="M327,371.27v80.3h21.44v17.2H317.63v-97.5Z" transform="translate(-84.4 -307.65)"/></g><g id="Group_212" data-name="Group 212"><path id="Path_163" data-name="Path 163" class="cls-4" d="M408.55,584.08c-26.4,0-47.87-24.17-47.87-53.91s21.47-53.91,47.87-53.91,47.86,24.18,47.86,53.91S434.94,584.08,408.55,584.08Zm0-88.65c-15.83,0-28.7,15.59-28.7,34.75s12.87,34.74,28.7,34.74,28.69-15.59,28.69-34.74-12.88-34.75-28.69-34.75Z" transform="translate(-84.4 -307.65)"/></g><g id="Group_213" data-name="Group 213"><path id="Path_164" data-name="Path 164" class="cls-4" d="M151.9,584.08c-26.39,0-47.86-24.17-47.86-53.91s21.47-53.91,47.86-53.91,47.87,24.18,47.87,53.91S178.29,584.08,151.9,584.08Zm0-88.65c-15.82,0-28.69,15.59-28.69,34.75s12.87,34.74,28.69,34.74,28.7-15.59,28.7-34.74-12.87-34.75-28.7-34.75Z" transform="translate(-84.4 -307.65)"/></g><g id="Group_214" data-name="Group 214"><path id="Path_165" data-name="Path 165" class="cls-1" d="M86.16,487.43v22l16.37-.2,9.23-22.13Z" transform="translate(-84.4 -307.65)"/><path id="Path_166" data-name="Path 166" class="cls-1" d="M85.49,510.1V486.77l27.29-.36L103,509.9Zm1.35-22v20.64l15.23-.18,8.67-20.77Z" transform="translate(-84.4 -307.65)"/></g></g></svg>